<?xml version="1.0" encoding="UTF-8"?>
<svg id="Layer_1" xmlns="http://www.w3.org/2000/svg" version="1.1" viewBox="0 0 1080 1080">
  <!-- Generator: Adobe Illustrator 30.0.0, SVG Export Plug-In . SVG Version: 2.1.1 Build 123)  -->
  <defs>
    <style>
      .st0 {
        fill: #0a0a0a;
        stroke: #000;
        stroke-miterlimit: 10;
        stroke-width: 22px;
      }
    </style>
  </defs>
  <path class="st0" d="M549.87,537.65c3.94,2.18,6.86,3.9,9.87,5.43,53.28,27.17,106.6,54.26,159.87,81.46,47.66,24.33,95.26,48.79,142.91,73.15,38.82,19.84,77.69,39.58,116.46,59.51,4.13,2.13,8.18,4.77,11.54,7.96,4.19,3.99,4.26,9.17,1.97,14.43-4.8,11.02-12.94,19.03-23.34,24.5-31.61,16.64-63.41,32.94-95.09,49.43-36.86,19.19-73.67,38.49-110.53,57.67-32.39,16.86-64.83,33.62-97.23,50.46-37.14,19.32-74.32,38.59-111.36,58.11-16.12,8.5-32.99,13.74-50.75,8.03-11.07-3.57-21.34-9.94-31.57-15.72-24.38-13.81-48.52-28.05-72.78-42.07-35.44-20.46-70.91-40.89-106.37-61.32-56.46-32.54-112.94-65.06-169.37-97.65-9.92-5.73-20.19-10.98-27.09-20.82-6.81-9.71-10.91-20.32-10.92-32.1-.1-145.55-.21-291.1.09-436.64.05-20.05,9.41-36.14,26.97-46.43,32.73-19.18,65.69-37.97,98.55-56.92,54.28-31.29,108.55-62.57,162.81-93.9,37.63-21.72,75.32-43.32,112.79-65.31,22.57-13.24,44.58-11.21,66.84.52,32.59,17.17,65.27,34.16,97.94,51.16,47.47,24.71,94.96,49.37,142.44,74.05,33.24,17.28,66.48,34.55,99.71,51.84,25,13,50.02,25.95,74.96,39.05,7.63,4.01,13.93,9.71,19.01,16.7,6.79,9.33,5.23,18.82-4.82,24.32-19.18,10.5-38.56,20.66-58.02,30.64-29,14.86-58.15,29.42-87.22,44.11-28.94,14.62-57.88,29.24-86.81,43.89-37.07,18.78-74.13,37.57-111.2,56.36-28.22,14.3-56.45,28.58-84.66,42.88-1.58.8-3.09,1.76-5.61,3.19M123.94,774.45c2.64,1.89,4.06,3.1,5.64,4.02,29.55,17.14,59.09,34.27,88.68,51.33,42.96,24.77,85.96,49.45,128.91,74.23,51.26,29.57,102.59,59.04,153.65,88.97,12.14,7.12,23.17,7.47,35.54.9,35.58-18.9,71.46-37.24,107.19-55.84,56.68-29.52,113.31-59.12,170-88.62,42.31-22.02,84.67-43.92,126.99-65.91,2.98-1.55,5.83-3.33,9.59-5.49-3.07-1.69-5.18-2.92-7.36-4.04-32.8-16.76-65.6-33.51-98.4-50.27-37.15-18.97-74.28-37.97-111.44-56.92-32.66-16.66-65.36-33.25-98.02-49.91-39.11-19.95-78.19-39.97-117.38-59.8-1.75-.89-4.69-.84-6.46.02-5.94,2.87-11.62,6.29-17.38,9.53-39.23,22.09-78.44,44.21-117.69,66.25-30.33,17.03-60.73,33.94-91.06,50.95-45.72,25.64-91.42,51.31-137.12,76.99-7.63,4.29-15.21,8.66-23.88,13.6M128.92,301.62c3.61,2.1,6.23,3.64,8.88,5.14,70.39,39.9,140.78,79.8,211.17,119.7,31.63,17.93,63.25,35.88,94.9,53.79,22.33,12.64,44.65,25.3,67.1,37.74,1.71.95,4.73,1.07,6.46.2,42.05-21.12,84-42.44,125.97-63.71,51.25-25.96,102.5-51.9,153.77-77.83,48.6-24.58,97.21-49.13,145.82-73.72,1.28-.65,2.45-1.53,4.44-2.78-3.6-2.04-6.26-3.66-9.02-5.09-32.12-16.7-64.27-33.35-96.39-50.05-38.4-19.97-76.78-39.99-115.19-59.96-31.56-16.42-63.14-32.8-94.69-49.22-32.54-16.93-65.1-33.8-97.55-50.88-10.85-5.71-21.11-5.74-31.75.66-15.1,9.1-30.47,17.74-45.74,26.54-38.18,22.03-76.37,44.02-114.55,66.04-28.5,16.43-57.01,32.87-85.5,49.31-34.08,19.67-68.16,39.35-102.23,59.04-8.26,4.78-16.49,9.6-25.88,15.07M117.7,330.9v411.56c121.7-68.35,242.61-136.25,364.91-204.94-122.31-69.26-243.21-137.71-364.91-206.62"/>
  <path class="st0" d="M549.87,537.65c3.94,2.18,6.86,3.9,9.87,5.43,53.28,27.17,106.6,54.26,159.87,81.46,47.66,24.33,95.26,48.79,142.91,73.15,38.82,19.84,77.69,39.58,116.46,59.51,4.13,2.13,8.18,4.77,11.54,7.96,4.19,3.99,4.26,9.17,1.97,14.43-4.8,11.02-12.94,19.03-23.34,24.5-31.61,16.64-63.41,32.94-95.09,49.43-36.86,19.19-73.67,38.49-110.53,57.67-32.39,16.86-64.83,33.62-97.23,50.46-37.14,19.32-74.32,38.59-111.36,58.11-16.12,8.5-32.99,13.74-50.75,8.03-11.07-3.57-21.34-9.94-31.57-15.72-24.38-13.81-48.52-28.05-72.78-42.07-35.44-20.46-70.91-40.89-106.37-61.32-56.46-32.54-112.94-65.06-169.37-97.65-9.92-5.73-20.19-10.98-27.09-20.82-6.81-9.71-10.91-20.32-10.92-32.1-.1-145.55-.21-291.1.09-436.64.05-20.05,9.41-36.14,26.97-46.43,32.73-19.18,65.69-37.97,98.55-56.92,54.28-31.29,108.55-62.57,162.81-93.9,37.63-21.72,75.32-43.32,112.79-65.31,22.57-13.24,44.58-11.21,66.84.52,32.59,17.17,65.27,34.16,97.94,51.16,47.47,24.71,94.96,49.37,142.44,74.05,33.24,17.28,66.48,34.55,99.71,51.84,25,13,50.02,25.95,74.96,39.05,7.63,4.01,13.93,9.71,19.01,16.7,6.79,9.33,5.23,18.82-4.82,24.32-19.18,10.5-38.56,20.66-58.02,30.64-29,14.86-58.15,29.42-87.22,44.11-28.94,14.62-57.88,29.24-86.81,43.89-37.07,18.78-74.13,37.57-111.2,56.36-28.22,14.3-56.45,28.58-84.66,42.88-1.58.8-3.09,1.76-5.61,3.19ZM123.94,774.45c2.64,1.89,4.06,3.1,5.64,4.02,29.55,17.14,59.09,34.27,88.68,51.33,42.96,24.77,85.96,49.45,128.91,74.23,51.26,29.57,102.59,59.04,153.65,88.97,12.14,7.12,23.17,7.47,35.54.9,35.58-18.9,71.46-37.24,107.19-55.84,56.68-29.52,113.31-59.12,170-88.62,42.31-22.02,84.67-43.92,126.99-65.91,2.98-1.55,5.83-3.33,9.59-5.49-3.07-1.69-5.18-2.92-7.36-4.04-32.8-16.76-65.6-33.51-98.4-50.27-37.15-18.97-74.28-37.97-111.44-56.92-32.66-16.66-65.36-33.25-98.02-49.91-39.11-19.95-78.19-39.97-117.38-59.8-1.75-.89-4.69-.84-6.46.02-5.94,2.87-11.62,6.29-17.38,9.53-39.23,22.09-78.44,44.21-117.69,66.25-30.33,17.03-60.73,33.94-91.06,50.95-45.72,25.64-91.42,51.31-137.12,76.99-7.63,4.29-15.21,8.66-23.88,13.6ZM128.92,301.62c3.61,2.1,6.23,3.64,8.88,5.14,70.39,39.9,140.78,79.8,211.17,119.7,31.63,17.93,63.25,35.88,94.9,53.79,22.33,12.64,44.65,25.3,67.1,37.74,1.71.95,4.73,1.07,6.46.2,42.05-21.12,84-42.44,125.97-63.71,51.25-25.96,102.5-51.9,153.77-77.83,48.6-24.58,97.21-49.13,145.82-73.72,1.28-.65,2.45-1.53,4.44-2.78-3.6-2.04-6.26-3.66-9.02-5.09-32.12-16.7-64.27-33.35-96.39-50.05-38.4-19.97-76.78-39.99-115.19-59.96-31.56-16.42-63.14-32.8-94.69-49.22-32.54-16.93-65.1-33.8-97.55-50.88-10.85-5.71-21.11-5.74-31.75.66-15.1,9.1-30.47,17.74-45.74,26.54-38.18,22.03-76.37,44.02-114.55,66.04-28.5,16.43-57.01,32.87-85.5,49.31-34.08,19.67-68.16,39.35-102.23,59.04-8.26,4.78-16.49,9.6-25.88,15.07ZM117.7,330.9v411.56c121.7-68.35,242.61-136.25,364.91-204.94-122.31-69.26-243.21-137.71-364.91-206.62Z"/>
</svg>